<svg width="620" height="200" xmlns="http://www.w3.org/2000/svg">
  <rect x="20" y="70" width="140" height="60" fill="#d4f1d4" stroke="#333" />
  <text x="40" y="105" font-family="Arial" font-size="12">Estudiante/</text>
  <text x="40" y="120" font-family="Arial" font-size="12">Desarrollador</text>
  <rect x="230" y="30" width="180" height="100" fill="#ffe0e0" stroke="#333" />
  <text x="260" y="70" font-family="Arial" font-size="12">JWT Auth API</text>
  <text x="250" y="90" font-family="Arial" font-size="12">Spring Boot REST</text>
  <rect x="450" y="30" width="150" height="60" fill="#fff1d4" stroke="#333" />
  <text x="470" y="60" font-family="Arial" font-size="12">Swagger UI</text>
  <rect x="450" y="110" width="150" height="60" fill="#f0f0f0" stroke="#333" />
  <text x="470" y="140" font-family="Arial" font-size="12">PostgreSQL</text>
  <text x="470" y="155" font-family="Arial" font-size="12">Usuarios y tokens</text>
  <defs>
    <marker id="arrow" markerWidth="10" markerHeight="10" refX="10" refY="5" orient="auto-start-reverse">
      <path d="M0,0 L10,5 L0,10 Z" fill="#333" />
    </marker>
  </defs>
  <line x1="160" y1="100" x2="230" y2="80" stroke="#333" stroke-width="2" marker-end="url(#arrow)" />
  <text x="190" y="70" font-family="Arial" font-size="11">Consume API</text>
  <line x1="130" y1="110" x2="450" y2="110" stroke="#333" stroke-width="2" marker-end="url(#arrow)" />
  <text x="250" y="132" font-family="Arial" font-size="11">Explora Swagger</text>
  <line x1="410" y1="90" x2="450" y2="60" stroke="#333" stroke-width="2" marker-end="url(#arrow)" />
  <text x="430" y="50" font-family="Arial" font-size="11">Lee OpenAPI</text>
  <line x1="410" y1="180" x2="450" y2="140" stroke="#333" stroke-width="2" marker-end="url(#arrow)" />
  <text x="410" y="170" font-family="Arial" font-size="11">Persistencia</text>
</svg>
