<svg width="620" height="220" xmlns="http://www.w3.org/2000/svg">
  <rect x="20" y="70" width="140" height="60" fill="#d4f1d4" stroke="#333" />
  <text x="50" y="105" font-family="Arial" font-size="12">Estudiante</text>
  <rect x="230" y="20" width="180" height="100" fill="#ffe0e0" stroke="#333" />
  <text x="260" y="60" font-family="Arial" font-size="12">Spring Boot App</text>
  <text x="250" y="80" font-family="Arial" font-size="12">Endpoints REST + Seguridad</text>
  <rect x="230" y="140" width="180" height="60" fill="#e0f7ff" stroke="#333" />
  <text x="250" y="165" font-family="Arial" font-size="12">Actuator</text>
  <rect x="450" y="40" width="150" height="60" fill="#fff1d4" stroke="#333" />
  <text x="470" y="65" font-family="Arial" font-size="12">Swagger UI</text>
  <rect x="450" y="140" width="150" height="60" fill="#f7e0ff" stroke="#333" />
  <text x="470" y="165" font-family="Arial" font-size="12">PostgreSQL</text>

  <defs>
    <marker id="arrow" markerWidth="10" markerHeight="10" refX="10" refY="5" orient="auto">
      <path d="M0,0 L10,5 L0,10 Z" fill="#333" />
    </marker>
  </defs>
  <line x1="160" y1="100" x2="230" y2="70" stroke="#333" stroke-width="2" marker-end="url(#arrow)" />
  <line x1="410" y1="70" x2="450" y2="70" stroke="#333" stroke-width="2" marker-end="url(#arrow)" />
  <line x1="410" y1="150" x2="450" y2="150" stroke="#333" stroke-width="2" marker-end="url(#arrow)" />
  <line x1="250" y1="200" x2="250" y2="160" stroke="#333" stroke-width="2" marker-end="url(#arrow)" />
  <text x="350" y="90" font-family="Arial" font-size="11">Deploy</text>
  <text x="330" y="170" font-family="Arial" font-size="11">Health</text>
  <text x="330" y="190" font-family="Arial" font-size="11">Actuator</text>
  <text x="430" y="30" font-family="Arial" font-size="11">Swagger</text>
  <text x="500" y="110" font-family="Arial" font-size="11">DB</text>
</svg>
